<mxfile host="app.diagrams.net" modified="2023-09-29T01:28:04.588Z" agent="Mozilla/5.0 (Windows NT 10.0; Win64; x64) AppleWebKit/537.36 (KHTML, like Gecko) Chrome/117.0.0.0 Safari/537.36" etag="6R1jpho91DD5ktFQb-QJ" version="22.0.0" type="device">
  <diagram name="Page-1" id="2YBvvXClWsGukQMizWep">
    <mxGraphModel dx="733" dy="380" grid="1" gridSize="10" guides="1" tooltips="1" connect="1" arrows="1" fold="1" page="1" pageScale="1" pageWidth="850" pageHeight="1100" math="0" shadow="0">
      <root>
        <mxCell id="0" />
        <mxCell id="1" parent="0" />
        <mxCell id="aM9ryv3xv72pqoxQDRHE-1" value=":User" style="shape=umlLifeline;perimeter=lifelinePerimeter;whiteSpace=wrap;html=1;container=0;dropTarget=0;collapsible=0;recursiveResize=0;outlineConnect=0;portConstraint=eastwest;newEdgeStyle={&quot;edgeStyle&quot;:&quot;elbowEdgeStyle&quot;,&quot;elbow&quot;:&quot;vertical&quot;,&quot;curved&quot;:0,&quot;rounded&quot;:0};" parent="1" vertex="1">
          <mxGeometry x="40" y="40" width="100" height="520" as="geometry" />
        </mxCell>
        <mxCell id="aM9ryv3xv72pqoxQDRHE-2" value="" style="html=1;points=[];perimeter=orthogonalPerimeter;outlineConnect=0;targetShapes=umlLifeline;portConstraint=eastwest;newEdgeStyle={&quot;edgeStyle&quot;:&quot;elbowEdgeStyle&quot;,&quot;elbow&quot;:&quot;vertical&quot;,&quot;curved&quot;:0,&quot;rounded&quot;:0};" parent="aM9ryv3xv72pqoxQDRHE-1" vertex="1">
          <mxGeometry x="45" y="70" width="10" height="80" as="geometry" />
        </mxCell>
        <mxCell id="aM9ryv3xv72pqoxQDRHE-5" value=":System" style="shape=umlLifeline;perimeter=lifelinePerimeter;whiteSpace=wrap;html=1;container=0;dropTarget=0;collapsible=0;recursiveResize=0;outlineConnect=0;portConstraint=eastwest;newEdgeStyle={&quot;edgeStyle&quot;:&quot;elbowEdgeStyle&quot;,&quot;elbow&quot;:&quot;vertical&quot;,&quot;curved&quot;:0,&quot;rounded&quot;:0};" parent="1" vertex="1">
          <mxGeometry x="220" y="40" width="100" height="520" as="geometry" />
        </mxCell>
        <mxCell id="aM9ryv3xv72pqoxQDRHE-6" value="" style="html=1;points=[];perimeter=orthogonalPerimeter;outlineConnect=0;targetShapes=umlLifeline;portConstraint=eastwest;newEdgeStyle={&quot;edgeStyle&quot;:&quot;elbowEdgeStyle&quot;,&quot;elbow&quot;:&quot;vertical&quot;,&quot;curved&quot;:0,&quot;rounded&quot;:0};" parent="aM9ryv3xv72pqoxQDRHE-5" vertex="1">
          <mxGeometry x="45" y="70" width="10" height="130" as="geometry" />
        </mxCell>
        <mxCell id="aM9ryv3xv72pqoxQDRHE-7" value="Request&amp;nbsp; add medicine" style="html=1;verticalAlign=bottom;endArrow=block;edgeStyle=elbowEdgeStyle;elbow=vertical;curved=0;rounded=0;" parent="1" source="aM9ryv3xv72pqoxQDRHE-2" target="aM9ryv3xv72pqoxQDRHE-6" edge="1">
          <mxGeometry relative="1" as="geometry">
            <mxPoint x="195" y="130" as="sourcePoint" />
            <Array as="points">
              <mxPoint x="180" y="120" />
            </Array>
          </mxGeometry>
        </mxCell>
        <mxCell id="xENhY5tNj3Xzj7cGjBOY-2" value=":Database" style="shape=umlLifeline;perimeter=lifelinePerimeter;whiteSpace=wrap;html=1;container=0;dropTarget=0;collapsible=0;recursiveResize=0;outlineConnect=0;portConstraint=eastwest;newEdgeStyle={&quot;edgeStyle&quot;:&quot;elbowEdgeStyle&quot;,&quot;elbow&quot;:&quot;vertical&quot;,&quot;curved&quot;:0,&quot;rounded&quot;:0};" vertex="1" parent="1">
          <mxGeometry x="400" y="40" width="100" height="520" as="geometry" />
        </mxCell>
        <mxCell id="xENhY5tNj3Xzj7cGjBOY-3" value="" style="html=1;points=[];perimeter=orthogonalPerimeter;outlineConnect=0;targetShapes=umlLifeline;portConstraint=eastwest;newEdgeStyle={&quot;edgeStyle&quot;:&quot;elbowEdgeStyle&quot;,&quot;elbow&quot;:&quot;vertical&quot;,&quot;curved&quot;:0,&quot;rounded&quot;:0};" vertex="1" parent="xENhY5tNj3Xzj7cGjBOY-2">
          <mxGeometry x="45" y="150" width="10" height="60" as="geometry" />
        </mxCell>
        <mxCell id="xENhY5tNj3Xzj7cGjBOY-4" value="Return add medicine form" style="html=1;verticalAlign=bottom;endArrow=open;dashed=1;endSize=8;edgeStyle=elbowEdgeStyle;elbow=vertical;curved=0;rounded=0;" edge="1" parent="1">
          <mxGeometry relative="1" as="geometry">
            <mxPoint x="95" y="144" as="targetPoint" />
            <Array as="points">
              <mxPoint x="190" y="144" />
            </Array>
            <mxPoint x="265" y="144" as="sourcePoint" />
          </mxGeometry>
        </mxCell>
        <mxCell id="xENhY5tNj3Xzj7cGjBOY-5" value="Fill and submit details" style="html=1;verticalAlign=bottom;endArrow=block;edgeStyle=elbowEdgeStyle;elbow=vertical;curved=0;rounded=0;" edge="1" parent="1">
          <mxGeometry relative="1" as="geometry">
            <mxPoint x="95" y="170" as="sourcePoint" />
            <Array as="points">
              <mxPoint x="180" y="170" />
            </Array>
            <mxPoint x="265" y="170" as="targetPoint" />
          </mxGeometry>
        </mxCell>
        <mxCell id="xENhY5tNj3Xzj7cGjBOY-6" value="" style="endArrow=classic;html=1;rounded=0;" edge="1" parent="1" target="aM9ryv3xv72pqoxQDRHE-5">
          <mxGeometry width="50" height="50" relative="1" as="geometry">
            <mxPoint x="275.92857142857144" y="170" as="sourcePoint" />
            <mxPoint x="330" y="220" as="targetPoint" />
            <Array as="points">
              <mxPoint x="300" y="170" />
              <mxPoint x="300" y="200" />
            </Array>
          </mxGeometry>
        </mxCell>
        <mxCell id="xENhY5tNj3Xzj7cGjBOY-7" value="Validate" style="text;html=1;align=center;verticalAlign=middle;resizable=0;points=[];autosize=1;strokeColor=none;fillColor=none;" vertex="1" parent="1">
          <mxGeometry x="290" y="168" width="70" height="30" as="geometry" />
        </mxCell>
        <mxCell id="xENhY5tNj3Xzj7cGjBOY-8" value="Send data" style="html=1;verticalAlign=bottom;endArrow=block;edgeStyle=elbowEdgeStyle;elbow=vertical;curved=0;rounded=0;" edge="1" parent="1">
          <mxGeometry relative="1" as="geometry">
            <mxPoint x="275" y="218" as="sourcePoint" />
            <Array as="points">
              <mxPoint x="360" y="218" />
            </Array>
            <mxPoint x="445" y="218" as="targetPoint" />
          </mxGeometry>
        </mxCell>
        <mxCell id="xENhY5tNj3Xzj7cGjBOY-9" value="" style="html=1;points=[];perimeter=orthogonalPerimeter;outlineConnect=0;targetShapes=umlLifeline;portConstraint=eastwest;newEdgeStyle={&quot;edgeStyle&quot;:&quot;elbowEdgeStyle&quot;,&quot;elbow&quot;:&quot;vertical&quot;,&quot;curved&quot;:0,&quot;rounded&quot;:0};" vertex="1" parent="1">
          <mxGeometry x="85" y="260" width="10" height="80" as="geometry" />
        </mxCell>
        <mxCell id="xENhY5tNj3Xzj7cGjBOY-10" value="" style="html=1;points=[];perimeter=orthogonalPerimeter;outlineConnect=0;targetShapes=umlLifeline;portConstraint=eastwest;newEdgeStyle={&quot;edgeStyle&quot;:&quot;elbowEdgeStyle&quot;,&quot;elbow&quot;:&quot;vertical&quot;,&quot;curved&quot;:0,&quot;rounded&quot;:0};" vertex="1" parent="1">
          <mxGeometry x="265" y="260" width="10" height="130" as="geometry" />
        </mxCell>
        <mxCell id="xENhY5tNj3Xzj7cGjBOY-11" value="Request&amp;nbsp; update medicine" style="html=1;verticalAlign=bottom;endArrow=block;edgeStyle=elbowEdgeStyle;elbow=vertical;curved=0;rounded=0;" edge="1" parent="1" source="xENhY5tNj3Xzj7cGjBOY-9" target="xENhY5tNj3Xzj7cGjBOY-10">
          <mxGeometry relative="1" as="geometry">
            <mxPoint x="195" y="280" as="sourcePoint" />
            <Array as="points">
              <mxPoint x="180" y="270" />
            </Array>
          </mxGeometry>
        </mxCell>
        <mxCell id="xENhY5tNj3Xzj7cGjBOY-12" value="" style="html=1;points=[];perimeter=orthogonalPerimeter;outlineConnect=0;targetShapes=umlLifeline;portConstraint=eastwest;newEdgeStyle={&quot;edgeStyle&quot;:&quot;elbowEdgeStyle&quot;,&quot;elbow&quot;:&quot;vertical&quot;,&quot;curved&quot;:0,&quot;rounded&quot;:0};" vertex="1" parent="1">
          <mxGeometry x="445" y="340" width="10" height="70" as="geometry" />
        </mxCell>
        <mxCell id="xENhY5tNj3Xzj7cGjBOY-13" value="Return update medicine form" style="html=1;verticalAlign=bottom;endArrow=open;dashed=1;endSize=8;edgeStyle=elbowEdgeStyle;elbow=vertical;curved=0;rounded=0;" edge="1" parent="1">
          <mxGeometry relative="1" as="geometry">
            <mxPoint x="95" y="294" as="targetPoint" />
            <Array as="points">
              <mxPoint x="190" y="294" />
            </Array>
            <mxPoint x="265" y="294" as="sourcePoint" />
          </mxGeometry>
        </mxCell>
        <mxCell id="xENhY5tNj3Xzj7cGjBOY-14" value="Fill and submit details" style="html=1;verticalAlign=bottom;endArrow=block;edgeStyle=elbowEdgeStyle;elbow=vertical;curved=0;rounded=0;" edge="1" parent="1">
          <mxGeometry relative="1" as="geometry">
            <mxPoint x="95" y="320" as="sourcePoint" />
            <Array as="points">
              <mxPoint x="180" y="320" />
            </Array>
            <mxPoint x="265" y="320" as="targetPoint" />
          </mxGeometry>
        </mxCell>
        <mxCell id="xENhY5tNj3Xzj7cGjBOY-15" value="" style="endArrow=classic;html=1;rounded=0;" edge="1" parent="1" target="xENhY5tNj3Xzj7cGjBOY-10">
          <mxGeometry width="50" height="50" relative="1" as="geometry">
            <mxPoint x="275.92857142857144" y="320" as="sourcePoint" />
            <mxPoint x="270" y="350" as="targetPoint" />
            <Array as="points">
              <mxPoint x="300" y="320" />
              <mxPoint x="300" y="350" />
            </Array>
          </mxGeometry>
        </mxCell>
        <mxCell id="xENhY5tNj3Xzj7cGjBOY-16" value="Validate" style="text;html=1;align=center;verticalAlign=middle;resizable=0;points=[];autosize=1;strokeColor=none;fillColor=none;" vertex="1" parent="1">
          <mxGeometry x="290" y="318" width="70" height="30" as="geometry" />
        </mxCell>
        <mxCell id="xENhY5tNj3Xzj7cGjBOY-17" value="Send data" style="html=1;verticalAlign=bottom;endArrow=block;edgeStyle=elbowEdgeStyle;elbow=vertical;curved=0;rounded=0;" edge="1" parent="1">
          <mxGeometry relative="1" as="geometry">
            <mxPoint x="275" y="368" as="sourcePoint" />
            <Array as="points">
              <mxPoint x="360" y="368" />
            </Array>
            <mxPoint x="445" y="368" as="targetPoint" />
          </mxGeometry>
        </mxCell>
        <mxCell id="xENhY5tNj3Xzj7cGjBOY-19" value="" style="endArrow=classic;html=1;rounded=0;" edge="1" parent="1">
          <mxGeometry width="50" height="50" relative="1" as="geometry">
            <mxPoint x="454.92857142857144" y="369" as="sourcePoint" />
            <mxPoint x="454" y="399" as="targetPoint" />
            <Array as="points">
              <mxPoint x="479" y="369" />
              <mxPoint x="479" y="399" />
            </Array>
          </mxGeometry>
        </mxCell>
        <mxCell id="xENhY5tNj3Xzj7cGjBOY-20" value="Update" style="text;html=1;align=center;verticalAlign=middle;resizable=0;points=[];autosize=1;strokeColor=none;fillColor=none;" vertex="1" parent="1">
          <mxGeometry x="470" y="368" width="60" height="30" as="geometry" />
        </mxCell>
        <mxCell id="xENhY5tNj3Xzj7cGjBOY-22" value="" style="html=1;points=[];perimeter=orthogonalPerimeter;outlineConnect=0;targetShapes=umlLifeline;portConstraint=eastwest;newEdgeStyle={&quot;edgeStyle&quot;:&quot;elbowEdgeStyle&quot;,&quot;elbow&quot;:&quot;vertical&quot;,&quot;curved&quot;:0,&quot;rounded&quot;:0};" vertex="1" parent="1">
          <mxGeometry x="85" y="403" width="10" height="80" as="geometry" />
        </mxCell>
        <mxCell id="xENhY5tNj3Xzj7cGjBOY-23" value="" style="html=1;points=[];perimeter=orthogonalPerimeter;outlineConnect=0;targetShapes=umlLifeline;portConstraint=eastwest;newEdgeStyle={&quot;edgeStyle&quot;:&quot;elbowEdgeStyle&quot;,&quot;elbow&quot;:&quot;vertical&quot;,&quot;curved&quot;:0,&quot;rounded&quot;:0};" vertex="1" parent="1">
          <mxGeometry x="265" y="403" width="10" height="50" as="geometry" />
        </mxCell>
        <mxCell id="xENhY5tNj3Xzj7cGjBOY-24" value="Request&amp;nbsp; delete medicine" style="html=1;verticalAlign=bottom;endArrow=block;edgeStyle=elbowEdgeStyle;elbow=vertical;curved=0;rounded=0;" edge="1" parent="1" source="xENhY5tNj3Xzj7cGjBOY-22" target="xENhY5tNj3Xzj7cGjBOY-23">
          <mxGeometry relative="1" as="geometry">
            <mxPoint x="195" y="423" as="sourcePoint" />
            <Array as="points">
              <mxPoint x="180" y="413" />
            </Array>
            <mxPoint as="offset" />
          </mxGeometry>
        </mxCell>
        <mxCell id="xENhY5tNj3Xzj7cGjBOY-25" value="" style="html=1;points=[];perimeter=orthogonalPerimeter;outlineConnect=0;targetShapes=umlLifeline;portConstraint=eastwest;newEdgeStyle={&quot;edgeStyle&quot;:&quot;elbowEdgeStyle&quot;,&quot;elbow&quot;:&quot;vertical&quot;,&quot;curved&quot;:0,&quot;rounded&quot;:0};" vertex="1" parent="1">
          <mxGeometry x="445" y="444" width="10" height="70" as="geometry" />
        </mxCell>
        <mxCell id="xENhY5tNj3Xzj7cGjBOY-26" value="Return delete medicine form" style="html=1;verticalAlign=bottom;endArrow=open;dashed=1;endSize=8;edgeStyle=elbowEdgeStyle;elbow=vertical;curved=0;rounded=0;" edge="1" parent="1">
          <mxGeometry relative="1" as="geometry">
            <mxPoint x="95" y="437" as="targetPoint" />
            <Array as="points">
              <mxPoint x="190" y="437" />
            </Array>
            <mxPoint x="265" y="437" as="sourcePoint" />
          </mxGeometry>
        </mxCell>
        <mxCell id="xENhY5tNj3Xzj7cGjBOY-27" value="Fill and submit details" style="html=1;verticalAlign=bottom;endArrow=block;edgeStyle=elbowEdgeStyle;elbow=vertical;curved=0;rounded=0;" edge="1" parent="1">
          <mxGeometry relative="1" as="geometry">
            <mxPoint x="95" y="472" as="sourcePoint" />
            <Array as="points">
              <mxPoint x="180" y="472" />
            </Array>
            <mxPoint x="445" y="472" as="targetPoint" />
          </mxGeometry>
        </mxCell>
        <mxCell id="xENhY5tNj3Xzj7cGjBOY-31" value="" style="endArrow=classic;html=1;rounded=0;" edge="1" parent="1">
          <mxGeometry width="50" height="50" relative="1" as="geometry">
            <mxPoint x="454.92857142857144" y="473" as="sourcePoint" />
            <mxPoint x="454" y="503" as="targetPoint" />
            <Array as="points">
              <mxPoint x="479" y="473" />
              <mxPoint x="479" y="503" />
            </Array>
          </mxGeometry>
        </mxCell>
        <mxCell id="xENhY5tNj3Xzj7cGjBOY-32" value="Delete" style="text;html=1;align=center;verticalAlign=middle;resizable=0;points=[];autosize=1;strokeColor=none;fillColor=none;" vertex="1" parent="1">
          <mxGeometry x="471" y="473" width="60" height="30" as="geometry" />
        </mxCell>
        <mxCell id="xENhY5tNj3Xzj7cGjBOY-33" value="" style="shape=umlDestroy;whiteSpace=wrap;html=1;strokeWidth=1;targetShapes=umlLifeline;" vertex="1" parent="1">
          <mxGeometry x="75" y="541" width="30" height="30" as="geometry" />
        </mxCell>
        <mxCell id="xENhY5tNj3Xzj7cGjBOY-34" value="" style="shape=umlDestroy;whiteSpace=wrap;html=1;strokeWidth=1;targetShapes=umlLifeline;" vertex="1" parent="1">
          <mxGeometry x="255" y="543" width="30" height="30" as="geometry" />
        </mxCell>
        <mxCell id="xENhY5tNj3Xzj7cGjBOY-35" value="" style="shape=umlDestroy;whiteSpace=wrap;html=1;strokeWidth=1;targetShapes=umlLifeline;" vertex="1" parent="1">
          <mxGeometry x="436" y="543" width="30" height="30" as="geometry" />
        </mxCell>
      </root>
    </mxGraphModel>
  </diagram>
</mxfile>
